<svg id="Layer_1" data-name="Layer 1" xmlns="http://www.w3.org/2000/svg" width="81.84mm" height="81.84mm" viewBox="0 0 232 232">
  <defs>
    <style>
      .cls-1 {
        fill: #3a2c34;
      }
    </style>
  </defs>
  <title>black</title>
  <path class="cls-1" d="M89,41.89V32.74c0-6.65-3.32-12.47-9.14-15a16.94,16.94,0,0,0-16.64,1.66L7.48,69.33A16,16,0,0,0,0,82.63,19.62,19.62,0,0,0,5.82,95.94l56.54,49.89A17,17,0,0,0,79,147.49c5.82-2.49,9.15-8.31,9.15-15v-8.31c54.88.83,105.6,34.09,128.05,86.48q2.51,5,7.49,5h1.66a8.1,8.1,0,0,0,6.65-8.32C232.82,121.71,170.46,51,89,41.89Z"/>
</svg>
